<?xml version="1.0" standalone="no"?>
<!DOCTYPE svg PUBLIC "-//W3C//DTD SVG 20010904//EN"
 "http://www.w3.org/TR/2001/REC-SVG-20010904/DTD/svg10.dtd">
<svg version="1.0" xmlns="http://www.w3.org/2000/svg"
 width="656.000000pt" height="530.000000pt" viewBox="0 0 656.000000 530.000000"
 preserveAspectRatio="xMidYMid meet">

<g transform="translate(0.000000,530.000000) scale(0.100000,-0.100000)"
fill="#000000" stroke="none">
<path d="M3233 5053 c-10 -4 -13 -58 -13 -226 0 -122 -4 -228 -8 -234 -6 -10
-118 -13 -483 -15 l-474 -3 -3 -847 -2 -848 -64 0 c-48 0 -65 -4 -70 -15 -3
-10 1 -19 12 -23 23 -10 2192 -9 2216 1 15 6 16 10 6 22 -8 10 -31 15 -71 15
l-59 0 0 1079 c0 912 -2 1080 -14 1090 -10 9 -140 11 -488 10 -260 -1 -479 -4
-485 -6z m942 -1103 l0 -1065 -122 -3 -123 -3 0 246 c0 276 -4 297 -61 309
-63 12 -288 7 -324 -8 l-35 -15 -2 -263 -3 -263 -121 -3 -121 -3 -5 1063 c-3
585 -3 1066 -1 1071 2 4 210 6 461 5 l457 -3 0 -1065z m-982 594 c16 -6 17
-65 17 -835 l0 -830 -122 3 -123 3 -5 213 c-5 197 -7 215 -24 228 -15 11 -59
14 -188 14 -225 0 -208 20 -208 -252 l0 -208 -125 0 -125 0 0 829 c0 782 1
830 18 834 30 6 867 8 885 1z m681 -1160 c14 -14 16 -48 14 -257 l-3 -242
-172 -3 -173 -2 0 249 c0 228 2 251 18 260 9 6 81 11 159 11 116 0 144 -3 157
-16z m-956 -296 l2 -208 -170 0 -170 0 0 203 c0 112 3 207 7 211 4 3 79 5 167
4 l161 -3 3 -207z"/>
<path d="M3505 4710 c-12 -19 10 -32 46 -28 48 4 46 32 -3 36 -20 2 -39 -2
-43 -8z"/>
<path d="M3845 4710 c-12 -19 10 -32 46 -28 48 4 46 32 -3 36 -20 2 -39 -2
-43 -8z"/>
<path d="M3506 4375 c-9 -25 -9 -25 40 -25 38 0 45 3 42 18 -4 24 -73 30 -82
7z"/>
<path d="M3847 4383 c-20 -20 -4 -33 39 -33 38 0 45 3 40 16 -3 9 -6 18 -6 20
0 7 -66 5 -73 -3z"/>
<path d="M3500 4030 c0 -17 7 -20 45 -20 38 0 45 3 45 20 0 17 -7 20 -45 20
-38 0 -45 -3 -45 -20z"/>
<path d="M3840 4031 c0 -18 6 -21 46 -21 38 0 45 3 42 18 -2 12 -15 18 -46 20
-37 3 -42 1 -42 -17z"/>
<path d="M3502 3693 c2 -13 15 -19 46 -21 37 -3 42 -1 42 17 0 18 -6 21 -46
21 -38 0 -45 -3 -42 -17z"/>
<path d="M3840 3690 c0 -19 5 -21 43 -18 29 2 42 8 42 18 0 10 -13 16 -42 18
-38 3 -43 1 -43 -18z"/>
<path d="M2545 4280 c-12 -19 10 -32 46 -28 48 4 46 32 -3 36 -20 2 -39 -2
-43 -8z"/>
<path d="M2880 4270 c0 -17 7 -20 40 -20 33 0 40 3 40 20 0 17 -7 20 -40 20
-33 0 -40 -3 -40 -20z"/>
<path d="M2547 3944 c-16 -17 -4 -24 39 -24 32 0 44 4 42 13 -5 13 -69 22 -81
11z"/>
<path d="M2880 3935 c0 -16 42 -30 65 -21 8 3 15 12 15 21 0 11 -11 15 -40 15
-29 0 -40 -4 -40 -15z"/>
<path d="M2540 3601 c0 -18 6 -21 46 -21 38 0 45 3 42 18 -2 12 -15 18 -46 20
-37 3 -42 1 -42 -17z"/>
<path d="M2880 3600 c0 -17 7 -20 40 -20 33 0 40 3 40 20 0 17 -7 20 -40 20
-33 0 -40 -3 -40 -20z"/>
<path d="M4271 2408 c-50 -26 -57 -42 -21 -46 49 -6 50 -15 50 -332 0 -308 -5
-354 -41 -365 -10 -4 -19 -13 -19 -21 0 -11 19 -14 91 -14 83 0 90 2 84 18
-27 62 -34 94 -35 149 -1 169 67 293 160 293 22 0 47 -8 61 -19 23 -19 24 -24
30 -216 l5 -198 28 -23 c34 -30 49 -30 103 1 57 34 57 54 1 52 l-43 -2 -5 191
c-7 227 -14 249 -93 273 -40 12 -54 13 -85 2 -52 -19 -89 -47 -123 -94 -19
-26 -30 -35 -34 -26 -3 8 -6 100 -7 204 l-3 190 -30 3 c-17 1 -50 -7 -74 -20z"/>
<path d="M820 2357 c0 -8 11 -19 25 -25 50 -23 48 -32 -73 -377 -33 -93 -67
-189 -77 -213 -18 -43 -60 -82 -89 -82 -9 0 -16 -7 -16 -15 0 -12 18 -15 101
-15 l102 0 -9 33 c-13 52 -8 108 17 182 l24 70 124 0 125 0 21 -55 c52 -134
52 -180 -1 -200 -49 -19 -12 -30 102 -30 63 0 114 4 114 8 0 5 -12 19 -26 33
-40 37 -57 79 -161 389 -13 41 -28 84 -33 95 -5 11 -23 64 -41 118 l-32 97
-99 0 c-75 0 -98 -3 -98 -13z m185 -241 c38 -112 45 -140 34 -147 -12 -7 -178
-2 -188 7 -5 5 79 257 91 272 6 7 12 11 14 10 1 -2 24 -65 49 -142z"/>
<path d="M1626 2144 c-22 -8 -47 -21 -56 -29 -23 -20 -37 -19 -45 5 -8 26 -55
26 -112 0 -51 -23 -55 -46 -10 -58 l32 -8 3 -307 c2 -256 0 -313 -13 -343 -8
-20 -15 -40 -15 -45 0 -12 167 -11 175 1 3 6 1 10 -4 10 -6 0 -20 9 -31 20
-19 19 -20 33 -20 340 l0 320 26 17 c14 9 49 18 77 21 98 7 159 -64 165 -193
5 -87 -24 -171 -70 -210 -26 -22 -39 -26 -77 -23 -25 3 -53 6 -61 9 -32 9 -13
-27 24 -45 35 -17 46 -18 95 -8 112 24 183 123 190 264 6 132 -49 229 -147
263 -55 18 -75 18 -126 -1z"/>
<path d="M2315 2148 c-44 -16 -90 -53 -115 -94 -27 -43 -38 -35 -42 31 -3 46
-5 50 -30 53 -35 4 -121 -33 -116 -50 3 -7 15 -15 29 -17 13 -1 27 -8 31 -15
12 -17 9 -331 -2 -361 -6 -15 -19 -29 -30 -32 -11 -3 -20 -12 -20 -19 0 -11
20 -14 90 -14 50 0 90 4 90 8 0 5 -8 24 -17 43 -25 47 -24 193 1 274 25 81 78
135 134 135 24 0 49 -7 63 -19 23 -19 24 -24 29 -208 5 -206 13 -236 65 -249
28 -7 109 35 119 62 5 13 0 15 -32 9 -26 -4 -42 -2 -49 7 -7 8 -13 84 -15 193
-4 202 -9 221 -68 254 -41 23 -69 25 -115 9z"/>
<path d="M2852 2140 c-63 -21 -113 -66 -144 -129 -32 -66 -33 -228 -1 -286 42
-79 118 -124 186 -110 42 9 112 50 131 76 17 25 36 17 36 -16 0 -33 46 -68 80
-60 39 10 85 40 85 55 0 9 -13 14 -40 14 l-40 1 0 223 0 222 -35 5 c-19 3 -59
10 -89 15 -74 14 -107 12 -169 -10z m167 -45 c16 -8 31 -22 35 -30 3 -9 6 -74
6 -144 0 -117 -2 -131 -23 -162 -33 -48 -83 -79 -129 -79 -32 0 -47 7 -73 33
-43 43 -58 102 -53 197 5 87 33 148 83 180 36 24 114 26 154 5z"/>
<path d="M3791 2141 c-75 -26 -101 -49 -138 -120 -30 -56 -33 -71 -33 -148 0
-94 12 -131 60 -180 66 -67 172 -64 254 8 24 21 47 39 50 39 13 0 6 -208 -9
-257 -19 -64 -61 -103 -111 -103 -46 0 -70 14 -89 50 -20 39 -19 78 5 123 25
46 25 47 -2 47 -64 0 -117 -74 -104 -145 14 -74 75 -115 171 -115 93 0 156 37
198 115 20 38 22 58 27 340 3 165 9 308 14 317 8 18 11 17 -131 38 -93 13 -98
13 -162 -9z m178 -55 c19 -17 21 -31 21 -145 0 -143 -9 -167 -77 -208 -105
-64 -195 6 -197 152 -1 88 23 153 71 196 34 29 40 31 99 27 43 -3 69 -10 83
-22z"/>
<path d="M5075 2143 c-76 -28 -111 -57 -144 -125 -28 -55 -31 -71 -31 -152 0
-75 4 -100 24 -142 58 -124 183 -147 290 -53 24 22 47 39 50 39 3 0 6 -11 6
-25 0 -29 40 -75 65 -75 26 0 79 26 99 49 20 22 18 24 -31 21 -22 -1 -35 4
-42 19 -14 26 -15 360 -1 397 6 15 9 29 6 31 -5 5 -116 22 -191 29 -33 3 -67
-2 -100 -13z m175 -58 c18 -17 20 -30 20 -163 0 -128 -2 -147 -20 -172 -29
-41 -81 -70 -126 -70 -84 0 -126 67 -126 199 0 116 34 194 97 222 34 15 132 5
155 -16z"/>
<path d="M5774 2128 c-20 -18 -45 -52 -56 -77 -23 -54 -36 -45 -40 29 -3 50
-5 55 -28 58 -28 3 -112 -36 -118 -55 -2 -8 6 -13 20 -13 45 0 48 -14 48 -191
0 -178 -6 -213 -39 -222 -12 -3 -21 -10 -21 -16 0 -7 32 -11 90 -11 96 0 99 2
76 48 -22 44 -28 103 -17 188 15 110 27 149 63 190 23 26 38 34 57 32 22 -3
26 -9 29 -40 2 -20 -2 -46 -8 -58 -10 -18 -8 -20 18 -20 37 0 82 46 82 84 0
40 -29 84 -63 96 -44 15 -53 13 -93 -22z"/>
<path d="M3465 1189 c-654 -27 -1345 -153 -1790 -324 -33 -13 -72 -27 -87 -30
-37 -9 -56 -33 -34 -41 21 -8 39 -4 172 44 117 41 379 116 529 150 255 59 533
104 845 137 80 9 273 18 430 22 469 9 867 -21 1226 -93 67 -13 133 -24 147
-24 25 0 45 16 34 26 -16 16 -409 86 -572 103 -98 10 -334 23 -605 34 -52 2
-185 0 -295 -4z"/>
<path d="M3796 822 c-3 -5 8 -6 25 -4 69 10 76 -39 18 -141 -47 -83 -66 -107
-87 -107 -15 0 -14 14 4 118 5 25 3 32 -9 32 -9 0 -19 -5 -23 -12 -10 -16 -44
-207 -44 -250 0 -50 26 -52 36 -3 9 51 78 117 117 113 50 -5 56 -30 24 -92
-16 -29 -39 -64 -53 -77 -21 -20 -28 -22 -45 -11 -19 12 -20 11 -17 -10 8 -60
84 -17 132 76 38 72 34 106 -15 132 -16 8 -29 20 -29 26 0 6 14 33 31 60 33
55 42 116 20 142 -14 17 -76 22 -85 8z"/>
<path d="M2040 817 c0 -5 -7 -40 -14 -80 -33 -160 -47 -256 -44 -283 3 -27 5
-25 46 39 60 93 75 89 61 -18 -11 -85 -10 -115 1 -115 5 0 14 10 21 21 9 17 8
23 -2 30 -11 6 -11 21 -2 75 15 84 4 115 -30 90 -28 -21 -47 -30 -52 -25 -2 3
6 60 17 127 17 94 19 125 10 134 -7 7 -12 9 -12 5z"/>
<path d="M3146 798 c-34 -167 -56 -301 -56 -333 1 -39 1 -40 18 -19 9 12 29
42 44 68 43 72 52 62 44 -54 -3 -55 -3 -100 2 -100 4 0 13 10 21 21 10 18 11
23 0 30 -11 6 -11 21 -2 74 6 37 9 73 6 81 -7 18 -37 18 -53 -1 -7 -8 -19 -15
-27 -15 -12 0 -14 7 -9 33 12 56 36 201 36 220 0 25 -19 21 -24 -5z"/>
<path d="M3714 774 l-39 -36 40 30 c22 16 47 32 55 35 13 5 13 6 -1 6 -9 1
-33 -15 -55 -35z"/>
<path d="M4415 791 c-20 -65 -81 -390 -75 -406 8 -24 16 -12 36 55 19 65 42
67 46 3 2 -30 8 -48 18 -51 12 -4 13 -2 3 10 -22 26 -19 111 5 144 26 34 44
91 32 99 -10 6 -26 -13 -39 -48 -11 -28 -31 -37 -31 -14 0 8 7 58 15 113 8 57
11 102 6 107 -5 5 -12 0 -16 -12z"/>
<path d="M1750 780 c-18 -7 -10 -8 30 -4 74 6 111 -6 138 -46 45 -68 19 -159
-76 -261 -65 -71 -116 -82 -81 -17 9 18 8 19 -10 13 -18 -5 -21 -2 -21 22 0
15 7 52 15 82 7 29 17 78 21 107 6 50 5 54 -15 54 -21 0 -25 -9 -34 -75 -2
-16 -12 -69 -22 -116 -22 -107 -17 -128 34 -153 39 -18 40 -18 70 3 104 74
181 244 147 324 -22 52 -50 70 -114 73 -31 2 -68 -1 -82 -6z"/>
<path d="M4182 769 c-11 -11 -27 -47 -36 -80 -10 -32 -22 -59 -28 -59 -7 0 -7
-5 1 -14 12 -14 2 -84 -29 -223 -13 -56 -13 -63 5 -63 20 0 29 25 49 148 19
115 30 152 47 152 6 0 22 9 36 20 29 23 18 27 -11 5 -24 -18 -36 -11 -36 21 0
37 19 67 37 59 21 -8 34 14 22 37 -13 24 -34 23 -57 -3z"/>
<path d="M2651 723 c-52 -147 -51 -145 -80 -138 -37 8 -52 -12 -57 -73 l-4
-47 13 50 c14 57 42 73 53 32 9 -37 -23 -100 -48 -94 -14 4 -18 1 -16 -11 2
-12 11 -16 31 -14 25 3 27 1 27 -32 0 -35 12 -47 25 -25 13 20 95 350 95 382
0 4 -6 7 -13 7 -7 0 -19 -17 -26 -37z"/>
<path d="M4286 681 c-4 -7 -5 -15 -2 -18 9 -9 19 4 14 18 -4 11 -6 11 -12 0z"/>
<path d="M3528 587 c-25 -29 -29 -30 -38 -14 -6 9 -17 17 -24 17 -16 0 -25
-31 -35 -123 -9 -87 10 -88 46 -2 33 78 60 115 84 115 12 0 19 7 19 20 0 29
-21 24 -52 -13z"/>
<path d="M4766 588 c-25 -32 -26 -32 -40 -14 -18 22 -46 15 -46 -11 -1 -10 -5
-49 -10 -88 -5 -38 -5 -74 0 -79 4 -4 29 35 54 88 40 83 50 96 71 96 18 0 25
5 25 20 0 30 -24 24 -54 -12z"/>
<path d="M3987 593 c-44 -50 -61 -174 -26 -196 21 -13 69 0 69 19 0 10 -6 13
-17 10 -10 -3 -24 -1 -32 4 -15 9 -9 29 21 73 10 14 10 19 1 25 -7 5 -10 17
-6 31 4 18 11 21 29 17 26 -7 31 3 12 22 -17 17 -32 15 -51 -5z"/>
<path d="M2993 580 c-27 -11 -56 -53 -51 -77 2 -9 14 -20 28 -23 30 -8 30 -23
0 -101 -31 -84 -56 -119 -84 -119 -31 0 -40 -14 -21 -30 39 -33 105 34 139
144 31 101 55 204 48 211 -8 7 -33 5 -59 -5z m22 -20 c7 -12 -15 -48 -34 -55
-26 -10 -35 12 -17 39 17 26 40 34 51 16z"/>
<path d="M2170 510 c-17 -103 -12 -113 46 -95 15 5 23 0 32 -20 13 -29 37 -24
29 6 -3 11 1 43 9 72 30 112 11 126 -40 32 -18 -33 -40 -61 -50 -63 -16 -3
-17 3 -10 67 3 39 4 71 1 71 -3 0 -10 -31 -17 -70z"/>
<path d="M2357 573 c-2 -5 -8 -41 -11 -81 -7 -67 -6 -73 10 -70 9 1 29 26 44
53 17 33 34 51 48 53 26 4 30 32 4 32 -10 0 -26 -13 -35 -30 -25 -41 -37 -38
-37 10 0 36 -12 52 -23 33z"/>
<path d="M3328 564 c-32 -17 -71 -86 -66 -117 3 -19 9 -22 39 -19 31 2 37 -1
42 -20 5 -17 9 -20 17 -12 15 15 19 176 5 180 -5 2 -22 -4 -37 -12z m26 -32
c8 -13 -44 -94 -57 -89 -20 6 -18 30 3 65 19 30 43 41 54 24z"/>
<path d="M4250 554 c-6 -14 -10 -35 -10 -47 0 -12 -4 -38 -10 -57 -9 -33 1
-63 16 -47 10 10 44 159 38 169 -10 15 -24 8 -34 -18z"/>
<path d="M4569 563 c-37 -23 -74 -99 -62 -129 4 -12 14 -14 39 -10 27 6 34 3
39 -15 12 -35 26 -7 36 71 6 52 6 77 -2 87 -14 16 -18 16 -50 -4z m25 -45
c-10 -35 -45 -79 -58 -75 -19 6 -17 30 4 65 24 39 66 46 54 10z"/>
<path d="M2720 540 c-6 -11 -13 -42 -16 -68 -10 -90 39 -109 78 -31 18 34 25
119 10 119 -4 0 -6 -15 -4 -32 5 -48 -20 -113 -44 -113 -27 0 -29 33 -5 93 17
43 18 52 6 52 -8 0 -19 -9 -25 -20z"/>
<path d="M2451 494 c0 -11 3 -14 6 -6 3 7 2 16 -1 19 -3 4 -6 -2 -5 -13z"/>
</g>
</svg>
