<?xml version="1.0" standalone="no"?>
<!DOCTYPE svg PUBLIC "-//W3C//DTD SVG 20010904//EN"
 "http://www.w3.org/TR/2001/REC-SVG-20010904/DTD/svg10.dtd">
<svg version="1.0" xmlns="http://www.w3.org/2000/svg"
 width="200.000000pt" height="200.000000pt" viewBox="0 0 200.000000 200.000000"
 preserveAspectRatio="xMidYMid meet">

<g transform="translate(0.000000,200.000000) scale(0.100000,-0.100000)"
fill="#000000" stroke="none">
<path d="M381 1209 c-36 -29 -51 -36 -51 -25 0 11 -9 16 -30 16 -28 0 -30 -3
-30 -35 0 -27 -8 -42 -40 -71 -31 -29 -37 -40 -29 -51 6 -7 15 -13 20 -13 5 0
57 37 115 81 75 57 111 79 120 73 7 -5 56 -42 109 -83 91 -70 125 -83 125 -48
0 15 -227 197 -246 197 -6 0 -34 -18 -63 -41z"/>
<path d="M813 1178 c-6 -7 -19 -39 -29 -71 -14 -46 -15 -60 -5 -70 10 -10 16
-7 28 11 19 28 53 29 60 2 5 -20 27 -27 37 -11 3 5 -4 39 -17 77 -17 53 -27
70 -43 72 -11 2 -25 -3 -31 -10z m37 -59 c0 -11 -7 -19 -16 -19 -11 0 -14 5
-10 16 3 9 6 20 6 25 0 6 5 7 10 4 6 -3 10 -15 10 -26z"/>
<path d="M942 1148 c-7 -7 -12 -42 -12 -85 0 -66 2 -73 20 -73 13 0 20 7 20
20 0 14 7 20 23 20 54 0 79 84 35 114 -27 19 -69 21 -86 4z m63 -53 c0 -20 -6
-31 -17 -33 -15 -3 -18 4 -18 33 0 29 3 36 18 33 11 -2 17 -13 17 -33z"/>
<path d="M1098 1149 c-14 -8 -18 -23 -18 -65 0 -47 3 -55 18 -52 13 2 18 15
20 51 2 32 8 47 17 47 9 0 15 -15 17 -47 2 -36 7 -49 21 -51 14 -3 17 5 17 52
0 44 -4 57 -19 66 -25 13 -51 12 -73 -1z"/>
<path d="M1230 1145 c-11 -13 -7 -15 24 -15 20 0 36 -4 36 -10 0 -5 -9 -10
-19 -10 -34 0 -51 -12 -51 -34 0 -31 19 -46 55 -46 17 0 36 5 43 12 17 17 15
84 -4 102 -20 20 -68 21 -84 1z m60 -70 c0 -8 -6 -15 -14 -15 -20 0 -29 17
-14 23 22 9 28 7 28 -8z"/>
<path d="M370 1020 c0 -25 4 -30 25 -30 21 0 25 5 25 30 0 25 -4 30 -25 30
-21 0 -25 -5 -25 -30z"/>
<path d="M460 1021 c0 -28 3 -31 31 -31 27 0 30 3 27 28 -2 21 -9 28 -30 30
-25 3 -28 0 -28 -27z"/>
<path d="M942 888 c3 -70 6 -83 21 -86 14 -3 17 4 17 48 0 44 3 51 18 48 12
-2 18 -16 22 -48 3 -31 10 -45 20 -45 11 0 16 13 18 46 3 53 -14 79 -54 79
-17 0 -24 5 -24 20 0 13 -7 20 -20 20 -20 0 -21 -5 -18 -82z"/>
<path d="M370 930 c0 -25 4 -30 25 -30 21 0 25 5 25 30 0 25 -4 30 -25 30 -21
0 -25 -5 -25 -30z"/>
<path d="M460 930 c0 -16 4 -30 8 -30 5 0 18 14 30 30 l23 30 -31 0 c-27 0
-30 -3 -30 -30z"/>
<path d="M795 936 c-61 -61 -6 -148 83 -131 32 6 33 8 30 48 -3 39 -5 42 -32
42 -16 0 -31 -6 -33 -12 -3 -7 2 -13 11 -13 9 0 16 -8 16 -20 0 -25 -22 -26
-43 -2 -35 39 -6 88 45 78 24 -5 29 -3 26 12 -2 12 -15 18 -40 20 -29 3 -43
-2 -63 -22z"/>
<path d="M1097 923 c-15 -14 -6 -23 23 -23 17 0 30 -4 30 -10 0 -5 -11 -10
-24 -10 -28 0 -49 -22 -44 -47 4 -22 47 -38 82 -29 24 6 26 11 26 54 0 26 -5
53 -12 60 -13 13 -70 17 -81 5z m58 -73 c3 -6 -1 -13 -10 -16 -19 -8 -30 0
-20 15 8 14 22 14 30 1z"/>
<path d="M1236 917 c-24 -18 -19 -110 7 -115 14 -3 17 4 17 43 0 38 4 48 20
52 11 3 20 12 20 19 0 18 -40 18 -64 1z"/>
</g>
</svg>
