<?xml version="1.0" standalone="no"?>
<!DOCTYPE svg PUBLIC "-//W3C//DTD SVG 20010904//EN"
 "http://www.w3.org/TR/2001/REC-SVG-20010904/DTD/svg10.dtd">
<svg version="1.0" xmlns="http://www.w3.org/2000/svg"
 width="1000.000000pt" height="1000.000000pt" viewBox="0 0 1000.000000 1000.000000"
 preserveAspectRatio="xMidYMid meet">

<g transform="translate(0.000000,1000.000000) scale(0.100000,-0.100000)"
fill="#000000" stroke="none">
<path d="M0 5000 l0 -5000 5000 0 5000 0 0 5000 0 5000 -5000 0 -5000 0 0
-5000z m4749 178 c93 -69 181 -149 175 -159 -11 -19 -35 -7 -134 66 -115 86
-98 86 -218 -2 -87 -64 -119 -80 -132 -67 -6 6 5 27 30 58 22 26 40 59 40 72
0 18 5 24 23 24 13 0 27 -4 33 -9 5 -6 26 3 54 24 25 19 51 35 59 35 8 0 39
-19 70 -42z m348 -30 c18 -23 45 -118 38 -136 -6 -15 -8 -15 -25 6 -21 25 -37
27 -64 7 -32 -24 -39 -18 -32 25 13 85 55 134 83 98z m173 -38 c23 -23 24 -29
10 -65 -6 -15 -22 -30 -39 -36 -16 -6 -32 -17 -35 -25 -3 -8 -12 -14 -21 -14
-12 0 -15 13 -15 64 0 35 3 71 6 80 9 23 69 21 94 -4z m153 -19 c10 -40 1 -84
-16 -78 -6 2 -15 22 -20 45 -11 55 -24 53 -33 -3 -10 -67 -34 -61 -34 9 0 60
6 66 59 63 31 -2 36 -6 44 -36z m126 25 c7 -8 11 -34 9 -58 l-3 -43 -45 0
c-43 0 -45 1 -45 29 0 25 5 31 35 39 l35 10 -38 11 c-22 6 -35 14 -31 19 13
12 71 8 83 -7z m-892 -112 c7 -19 -20 -49 -36 -40 -6 4 -11 18 -11 32 0 17 5
24 20 24 11 0 23 -7 27 -16z m96 -4 c6 -23 -16 -45 -38 -36 -8 3 -15 17 -15
31 0 20 5 25 24 25 15 0 26 -7 29 -20z m-13 -90 c-30 -42 -40 -45 -40 -11 0
20 6 31 18 34 40 11 43 7 22 -23z m477 17 c4 -8 21 -20 38 -28 31 -15 48 -58
35 -93 -9 -28 -23 -20 -35 20 -14 49 -35 57 -35 12 0 -39 -13 -63 -29 -54 -6
4 -11 38 -11 82 0 58 3 74 15 74 7 0 18 -6 22 -13z m-560 -13 c7 -19 -20 -49
-36 -40 -6 4 -11 18 -11 32 0 17 5 24 20 24 11 0 23 -7 27 -16z m473 1 c11
-13 8 -15 -22 -15 -19 0 -39 -5 -46 -12 -29 -29 -1 -88 34 -74 16 6 16 8 0 25
-18 20 -12 31 16 31 22 0 41 -43 33 -71 -9 -28 -81 -26 -112 3 -48 45 -14 128
53 128 17 0 37 -7 44 -15z m292 -50 c4 -16 5 -42 2 -57 -5 -25 -10 -28 -43
-28 -68 0 -85 50 -25 72 l37 13 -28 5 c-16 3 -30 11 -33 18 -3 10 7 12 39 10
38 -3 44 -6 51 -33z m108 26 c0 -5 -7 -14 -15 -21 -8 -7 -15 -24 -15 -39 0
-33 -14 -56 -29 -47 -15 10 -14 89 1 104 14 14 58 16 58 3z"/>
<path d="M5067 5113 c-12 -12 -7 -33 8 -33 17 0 19 9 7 28 -5 7 -11 9 -15 5z"/>
<path d="M5210 5071 c0 -21 5 -31 16 -31 11 0 14 8 12 27 -4 39 -28 42 -28 4z"/>
<path d="M5495 5050 c-3 -5 1 -10 9 -10 8 0 18 5 21 10 3 6 -1 10 -9 10 -8 0
-18 -4 -21 -10z"/>
<path d="M5360 4820 c0 -5 7 -10 15 -10 8 0 15 5 15 10 0 6 -7 10 -15 10 -8 0
-15 -4 -15 -10z"/>
</g>
</svg>
